<svg width="129" height="52" viewBox="0 0 129 52" fill="none" xmlns="http://www.w3.org/2000/svg">
<path opacity="0.5" d="M52.0157 0.35129L39.286 47.8829C39.2212 48.0986 38.9623 48.1634 38.8113 48.0123L30.2888 39.4899L36.6753 15.6701C36.74 15.4544 36.5458 15.2602 36.3301 15.3249L12.5103 21.7114L4.03104 13.2321C3.88001 13.081 3.94474 12.8221 4.1605 12.7574L51.6705 0.00607603C51.8863 -0.0370757 52.0804 0.157107 52.0157 0.35129Z" fill="#00B37E"/>
<path opacity="0.5" d="M30.2885 39.49L27.009 51.7882C26.9442 52.004 26.6853 52.0687 26.5343 51.9177L0.0823113 25.4873C-0.0687196 25.3362 -0.00399244 25.0773 0.211766 25.0126L12.51 21.7115L30.2885 39.49Z" fill="#00B37E"/>
<path d="M36.6752 15.6699L30.2887 39.4897L12.5103 21.7112L36.33 15.3247C36.5457 15.26 36.7399 15.4542 36.6752 15.6699Z" fill="#00B37E"/>
<path d="M69.1256 31.4754C69.1256 31.0383 69.0269 30.6339 68.8294 30.2623C68.6429 29.8798 68.2534 29.5355 67.6609 29.2295C67.0794 28.9126 66.2016 28.6393 65.0276 28.4098C64.0401 28.2022 63.1459 27.9563 62.3449 27.6721C61.5549 27.388 60.8802 27.0437 60.3206 26.6393C59.772 26.235 59.3496 25.7596 59.0533 25.2131C58.7571 24.6667 58.6089 24.0273 58.6089 23.2951C58.6089 22.5956 58.7626 21.9344 59.0698 21.3115C59.388 20.6885 59.8323 20.1366 60.4029 19.6557C60.9844 19.1749 61.6811 18.7978 62.493 18.5246C63.305 18.2514 64.2102 18.1148 65.2086 18.1148C66.635 18.1148 67.8529 18.3661 68.8623 18.8689C69.8717 19.3716 70.6453 20.0437 71.1829 20.8852C71.7205 21.7158 71.9893 22.6393 71.9893 23.6557H68.9446C68.9446 23.1639 68.7965 22.6885 68.5002 22.2295C68.215 21.7596 67.7925 21.3716 67.233 21.0656C66.6844 20.7596 66.0096 20.6066 65.2086 20.6066C64.3638 20.6066 63.678 20.7377 63.1514 21C62.6357 21.2514 62.2571 21.5738 62.0158 21.9672C61.7853 22.3607 61.6701 22.776 61.6701 23.2131C61.6701 23.541 61.725 23.8361 61.8347 24.0984C61.9554 24.3497 62.1639 24.5847 62.4601 24.8033C62.7564 25.0109 63.1733 25.2076 63.7109 25.3934C64.2486 25.5792 64.9343 25.765 65.7682 25.9508C67.2275 26.2787 68.4289 26.6721 69.3725 27.1311C70.3161 27.5902 71.0183 28.153 71.4791 28.8197C71.94 29.4863 72.1704 30.2951 72.1704 31.2459C72.1704 32.0219 72.0058 32.7322 71.6766 33.377C71.3584 34.0219 70.8921 34.5792 70.2777 35.0492C69.6742 35.5082 68.9501 35.8689 68.1052 36.1311C67.2714 36.3825 66.3333 36.5082 65.2909 36.5082C63.7219 36.5082 62.3943 36.2295 61.3081 35.6721C60.2218 35.1148 59.3989 34.3934 58.8394 33.5082C58.2798 32.623 58 31.6885 58 30.7049H61.0612C61.1051 31.5355 61.3465 32.1967 61.7853 32.6885C62.2242 33.1694 62.7619 33.5137 63.3982 33.7213C64.0346 33.918 64.6655 34.0164 65.2909 34.0164C66.1248 34.0164 66.8215 33.9071 67.3811 33.6885C67.9516 33.4699 68.385 33.1694 68.6813 32.7869C68.9775 32.4044 69.1256 31.9672 69.1256 31.4754Z" fill="white"/>
<path d="M79.2144 11V36.1803H76.1697V11H79.2144ZM78.4903 26.6393L77.223 26.5902C77.234 25.377 77.415 24.2568 77.7661 23.2295C78.1172 22.1913 78.611 21.2896 79.2473 20.5246C79.8837 19.7596 80.6408 19.1694 81.5185 18.7541C82.4073 18.3279 83.3893 18.1148 84.4645 18.1148C85.3423 18.1148 86.1323 18.235 86.8345 18.4754C87.5367 18.7049 88.1347 19.0765 88.6284 19.5902C89.1331 20.1038 89.5172 20.7705 89.7805 21.5902C90.0438 22.3989 90.1755 23.388 90.1755 24.5574V36.1803H87.1143V24.5246C87.1143 23.5956 86.9771 22.8525 86.7028 22.2951C86.4285 21.7268 86.028 21.3169 85.5014 21.0656C84.9747 20.8033 84.3274 20.6721 83.5593 20.6721C82.8023 20.6721 82.111 20.8306 81.4856 21.1475C80.8712 21.4645 80.339 21.9016 79.8892 22.459C79.4503 23.0164 79.1047 23.6557 78.8523 24.377C78.611 25.0874 78.4903 25.8415 78.4903 26.6393Z" fill="white"/>
<path d="M93.9279 27.5082V27.1311C93.9279 25.8525 94.1144 24.6667 94.4875 23.5738C94.8605 22.4699 95.3982 21.5137 96.1004 20.7049C96.8026 19.8852 97.6529 19.2514 98.6514 18.8033C99.6498 18.3443 100.769 18.1148 102.009 18.1148C103.26 18.1148 104.384 18.3443 105.383 18.8033C106.392 19.2514 107.248 19.8852 107.95 20.7049C108.663 21.5137 109.206 22.4699 109.58 23.5738C109.953 24.6667 110.139 25.8525 110.139 27.1311V27.5082C110.139 28.7869 109.953 29.9727 109.58 31.0656C109.206 32.1585 108.663 33.1148 107.95 33.9344C107.248 34.7432 106.398 35.377 105.399 35.8361C104.412 36.2842 103.293 36.5082 102.042 36.5082C100.791 36.5082 99.6663 36.2842 98.6678 35.8361C97.6694 35.377 96.8136 34.7432 96.1004 33.9344C95.3982 33.1148 94.8605 32.1585 94.4875 31.0656C94.1144 29.9727 93.9279 28.7869 93.9279 27.5082ZM96.9726 27.1311V27.5082C96.9726 28.3934 97.0769 29.2295 97.2854 30.0164C97.4938 30.7923 97.8065 31.4809 98.2235 32.082C98.6514 32.6831 99.1835 33.1585 99.8199 33.5082C100.456 33.847 101.197 34.0164 102.042 34.0164C102.876 34.0164 103.605 33.847 104.231 33.5082C104.867 33.1585 105.394 32.6831 105.811 32.082C106.228 31.4809 106.54 30.7923 106.749 30.0164C106.968 29.2295 107.078 28.3934 107.078 27.5082V27.1311C107.078 26.2568 106.968 25.4317 106.749 24.6557C106.54 23.8689 106.222 23.1749 105.794 22.5738C105.377 21.9617 104.851 21.4809 104.214 21.1311C103.589 20.7814 102.854 20.6066 102.009 20.6066C101.175 20.6066 100.44 20.7814 99.8034 21.1311C99.178 21.4809 98.6514 21.9617 98.2235 22.5738C97.8065 23.1749 97.4938 23.8689 97.2854 24.6557C97.0769 25.4317 96.9726 26.2568 96.9726 27.1311Z" fill="white"/>
<path d="M117.002 21.8525V43H113.941V18.4426H116.739L117.002 21.8525ZM129 27.1639V27.5082C129 28.7978 128.846 29.9945 128.539 31.0984C128.232 32.1913 127.782 33.1421 127.19 33.9508C126.608 34.7596 125.889 35.388 125.034 35.8361C124.178 36.2842 123.196 36.5082 122.088 36.5082C120.958 36.5082 119.959 36.3224 119.092 35.9508C118.225 35.5792 117.49 35.0383 116.887 34.3279C116.283 33.6175 115.801 32.765 115.439 31.7705C115.087 30.776 114.846 29.6557 114.714 28.4098V26.5738C114.846 25.2623 115.093 24.0874 115.455 23.0492C115.817 22.0109 116.294 21.1257 116.887 20.3934C117.49 19.6503 118.22 19.0874 119.076 18.7049C119.932 18.3115 120.919 18.1148 122.038 18.1148C123.157 18.1148 124.15 18.3333 125.017 18.7705C125.884 19.1967 126.614 19.8087 127.206 20.6066C127.799 21.4044 128.243 22.3607 128.539 23.4754C128.846 24.5792 129 25.8087 129 27.1639ZM125.939 27.5082V27.1639C125.939 26.2787 125.846 25.4481 125.659 24.6721C125.472 23.8852 125.182 23.1967 124.787 22.6066C124.403 22.0055 123.909 21.5355 123.306 21.1967C122.702 20.847 121.983 20.6721 121.15 20.6721C120.381 20.6721 119.712 20.8033 119.142 21.0656C118.582 21.3279 118.105 21.6831 117.71 22.1311C117.315 22.5683 116.991 23.071 116.739 23.6393C116.497 24.1967 116.316 24.776 116.196 25.377V29.6229C116.415 30.388 116.722 31.1093 117.117 31.7869C117.512 32.4536 118.039 32.9945 118.697 33.4098C119.356 33.8142 120.184 34.0164 121.182 34.0164C122.005 34.0164 122.713 33.847 123.306 33.5082C123.909 33.1585 124.403 32.6831 124.787 32.082C125.182 31.4809 125.472 30.7923 125.659 30.0164C125.846 29.2295 125.939 28.3934 125.939 27.5082Z" fill="white"/>
</svg>
